<svg xmlns="http://www.w3.org/2000/svg" viewBox="0 0 720 280" width="100%" role="img" aria-label="Daily UA margin (example)">
<line class="grid" x1="31.8" x2="706" y1="238" y2="238"/>
<text class="ax" x="23.8" y="242" text-anchor="end">−$4</text>
<line class="grid" x1="31.8" x2="706" y1="183.5" y2="183.5"/>
<text class="ax" x="23.8" y="187.5" text-anchor="end">−$2</text>
<line class="grid zero" x1="31.8" x2="706" y1="129" y2="129"/>
<text class="ax" x="23.8" y="133" text-anchor="end">$0</text>
<line class="grid" x1="31.8" x2="706" y1="74.5" y2="74.5"/>
<text class="ax" x="23.8" y="78.5" text-anchor="end">$2</text>
<line class="grid" x1="31.8" x2="706" y1="20" y2="20"/>
<text class="ax" x="23.8" y="24" text-anchor="end">$4</text>
<g class="hv"><title>Sep 12: −$3.20</title><rect class="hit" x="31.8" y="20" width="67.4" height="218"/>
<path class="mk s-bad" d="M51.5 129V213.2A3 3 0 0 0 54.5 216.2H76.5A3 3 0 0 0 79.5 213.2V129Z"/>
<text class="val" x="65.5" y="229.2" text-anchor="middle">−$3.20</text>
</g>
<g class="hv"><title>Sep 13: −$1.50</title><rect class="hit" x="99.2" y="20" width="67.4" height="218"/>
<path class="mk s-bad" d="M118.9 129V166.9A3 3 0 0 0 121.9 169.9H143.9A3 3 0 0 0 146.9 166.9V129Z"/>
<text class="val" x="132.9" y="182.9" text-anchor="middle">−$1.50</text>
</g>
<g class="hv"><title>Sep 14: $0.40</title><rect class="hit" x="166.6" y="20" width="67.4" height="218"/>
<path class="mk s-good" d="M186.4 129V121.1A3 3 0 0 1 189.4 118.1H211.4A3 3 0 0 1 214.4 121.1V129Z"/>
<text class="val" x="200.4" y="113.1" text-anchor="middle">$0.40</text>
</g>
<g class="hv"><title>Sep 15: $2.10</title><rect class="hit" x="234.1" y="20" width="67.4" height="218"/>
<path class="mk s-good" d="M253.8 129V74.8A3 3 0 0 1 256.8 71.8H278.8A3 3 0 0 1 281.8 74.8V129Z"/>
<text class="val" x="267.8" y="66.8" text-anchor="middle">$2.10</text>
</g>
<g class="hv"><title>Sep 16: −$0.80</title><rect class="hit" x="301.5" y="20" width="67.4" height="218"/>
<path class="mk s-bad" d="M321.2 129V147.8A3 3 0 0 0 324.2 150.8H346.2A3 3 0 0 0 349.2 147.8V129Z"/>
<text class="val" x="335.2" y="163.8" text-anchor="middle">−$0.80</text>
</g>
<g class="hv"><title>Sep 17: $1.60</title><rect class="hit" x="368.9" y="20" width="67.4" height="218"/>
<path class="mk s-good" d="M388.6 129V88.4A3 3 0 0 1 391.6 85.4H413.6A3 3 0 0 1 416.6 88.4V129Z"/>
<text class="val" x="402.6" y="80.4" text-anchor="middle">$1.60</text>
</g>
<g class="hv"><title>Sep 18: $3.30</title><rect class="hit" x="436.3" y="20" width="67.4" height="218"/>
<path class="mk s-good" d="M456 129V42.1A3 3 0 0 1 459 39.1H481A3 3 0 0 1 484 42.1V129Z"/>
<text class="val" x="470" y="34.1" text-anchor="middle">$3.30</text>
</g>
<g class="hv"><title>Sep 19: −$2.40</title><rect class="hit" x="503.7" y="20" width="67.4" height="218"/>
<path class="mk s-bad" d="M523.5 129V191.4A3 3 0 0 0 526.5 194.4H548.5A3 3 0 0 0 551.5 191.4V129Z"/>
<text class="val" x="537.5" y="207.4" text-anchor="middle">−$2.40</text>
</g>
<g class="hv"><title>Sep 20: $0.90</title><rect class="hit" x="571.2" y="20" width="67.4" height="218"/>
<path class="mk s-good" d="M590.9 129V107.5A3 3 0 0 1 593.9 104.5H615.9A3 3 0 0 1 618.9 107.5V129Z"/>
<text class="val" x="604.9" y="99.5" text-anchor="middle">$0.90</text>
</g>
<g class="hv"><title>Sep 21: $1.20</title><rect class="hit" x="638.6" y="20" width="67.4" height="218"/>
<path class="mk s-good" d="M658.3 129V99.3A3 3 0 0 1 661.3 96.3H683.3A3 3 0 0 1 686.3 99.3V129Z"/>
<text class="val" x="672.3" y="91.3" text-anchor="middle">$1.20</text>
</g>
<text class="ax" x="65.5" y="254" text-anchor="middle">Sep 12</text>
<text class="ax" x="132.9" y="254" text-anchor="middle">Sep 13</text>
<text class="ax" x="200.4" y="254" text-anchor="middle">Sep 14</text>
<text class="ax" x="267.8" y="254" text-anchor="middle">Sep 15</text>
<text class="ax" x="335.2" y="254" text-anchor="middle">Sep 16</text>
<text class="ax" x="402.6" y="254" text-anchor="middle">Sep 17</text>
<text class="ax" x="470" y="254" text-anchor="middle">Sep 18</text>
<text class="ax" x="537.5" y="254" text-anchor="middle">Sep 19</text>
<text class="ax" x="604.9" y="254" text-anchor="middle">Sep 20</text>
<text class="ax" x="672.3" y="254" text-anchor="middle">Sep 21</text>
<text class="ax" x="31.8" y="276">revenue minus spend per day · made-up data</text>
</svg>